<svg width="1816" height="536" viewBox="0 0 1816 536" fill="none" xmlns="http://www.w3.org/2000/svg">
<path d="M646.2 156.8H734.7V529H646.2V156.8ZM482 156.8H572.5C563.7 217.3 555.7 271.2 548.6 314.6C528.5 437.6 524.4 530.8 397.4 530.8C356.3 530.8 318.6 517.5 286.3 495.8C254.1 517.5 216.4 530.8 175.2 530.8C48.2001 530.8 44.1001 437.6 24.0001 314.6C16.9001 271.2 9.0001 217.3 0.100098 156.8H90.6001C95.0001 204.8 102.8 269.1 110.5 326.7C119.7 395.6 121.6 450.6 186.6 450.6C202.6 450.6 217 447.8 230.1 443C196.3 399.7 176.3 346 176.3 295.6C176.3 210.3 228.6 143.1 286.3 143.1C344 143.1 396.3 210.3 396.3 295.6C396.3 346 376.3 399.6 342.5 443C355.5 447.9 369.9 450.6 386 450.6C451 450.6 452.8 395.6 462.1 326.7C469.8 269.1 477.6 204.7 482 156.8ZM319.1 304.8C319.1 272.3 310.9 246.2 286.3 220.4C261.7 246.2 253.5 272.3 253.5 304.8C253.5 333.4 264 365.8 286.3 390.4C308.6 365.8 319.1 333.4 319.1 304.8ZM1815.8 342.3C1815.8 441.2 1750.8 535.8 1630.6 535.8C1509.1 535.8 1445.4 448.1 1445.4 342.3C1445.4 233.2 1514.3 149.2 1630.6 148.8C1746.9 149.2 1815.8 238.8 1815.8 342.3ZM1726.9 342.3C1726.8 280.4 1695.4 225.1 1630.6 224.7C1565.8 225.1 1534.3 280.3 1534.3 342.3C1534.4 404.2 1563.2 459.9 1630.6 459.9C1699.2 459.9 1726.8 404.2 1726.9 342.3ZM1118.6 341.8C1118.6 342 1118.6 342.6 1118.6 342.7C1118.6 446.6 1183.6 535.7 1315.2 535.7C1344.9 535.7 1372.3 530.9 1392.7 521.5V444.8C1366.9 455.3 1347.9 459.8 1317.9 459.8C1239.8 459.8 1209 402.9 1209 343.2V341.2C1208 285.2 1239.8 224.6 1317.9 224.6C1347.9 224.6 1366.9 229.1 1392.7 239.6V161.2C1373.1 152.8 1344.9 148.7 1315.2 148.7C1191.1 148.8 1118.6 237.9 1118.6 341.8ZM691.5 0C659.7 0 637 19.4 637 53.3C637 86.9 660.7 108.4 691.5 108.4C718 108.4 744 90.4 744 53.3C743.9 22.7 722.7 0 691.5 0ZM963.2 63.6H875.4V156.6H802.5V231.8H875.4V391.8C875.4 484.1 923.8 533.9 1001.2 533.9C1030.2 533.9 1051.8 530.2 1066.7 523.5V443.8C1066.7 443.8 1063 446.6 1059.3 448.3C1048.9 453.2 1035.5 455 1019.9 455C981.9 455 963.3 431.9 963.3 385.1V231.8H1071.2V156.6H963.3V63.6H963.2Z" fill="#002266"/>
</svg>
